<?xml version="1.0" encoding="UTF-8"?>
<svg id="Calque_1" data-name="Calque 1" xmlns="http://www.w3.org/2000/svg" viewBox="0 0 251.46 166.63">
  <defs>
    <style>
      .cls-1 {
        fill: #929292;
      }

      .cls-2 {
        fill: #474746;
      }

      .cls-3 {
        fill: #5f5e5e;
      }
    </style>
  </defs>
  <path class="cls-3" d="M47.15,23.36v44.21l20.13,20.13h115.57l21.46-21.47V23.36H47.15ZM125.73,83.06l-27.52-27.52,27.52-27.51,27.52,27.51-27.52,27.52Z"/>
  <rect class="cls-1" x="88.2" y="83.82" width="74.27" height="21.66"/>
  <polygon class="cls-1" points="219.63 52.72 211.9 60.45 188.47 83.89 162.7 109.67 147.38 94.35 157.84 83.89 204.31 37.4 219.63 52.72"/>
  <polygon class="cls-1" points="104.14 95.1 88.83 110.42 62.3 83.89 31.86 53.45 40.32 45 47.18 38.15 92.93 83.89 104.14 95.1"/>
  <rect class="cls-2" x="47.14" y="8.87" width="157.17" height="15.47"/>
  <g>
    <path class="cls-2" d="M25.19,83h0c0-8.94,0-13.95,0-22.9l11.75-11.75,22.9,22.9-11.75,11.75c-8.94,0-13.95,0-22.9,0Z"/>
    <path class="cls-2" d="M59.27,117.07h0c0-8.94,0-13.95,0-22.9l11.75-11.75,22.9,22.9-11.75,11.75c-8.94,0-13.95,0-22.9,0Z"/>
    <path class="cls-2" d="M126.11,133.48h0l-16.19-16.19v-16.61s32.38,0,32.38,0v16.61c-6.32,6.32-9.87,9.87-16.19,16.19Z"/>
    <path class="cls-2" d="M192.96,117.07h0c-8.94,0-13.95,0-22.9,0l-11.75-11.75,22.9-22.9,11.75,11.75c0,8.94,0,13.95,0,22.9Z"/>
    <path class="cls-2" d="M227.03,83h0c-8.94,0-13.95,0-22.9,0l-11.75-11.75,22.9-22.9,11.75,11.75c0,8.94,0,13.95,0,22.9Z"/>
  </g>
</svg>