<?xml version="1.0" encoding="UTF-8"?>
<svg id="Calque_1" data-name="Calque 1" xmlns="http://www.w3.org/2000/svg" viewBox="0 0 251.46 166.63">
  <defs>
    <style>
      .cls-1 {
        fill: #929292;
      }

      .cls-2 {
        fill: #474746;
      }

      .cls-3 {
        fill: #5f5e5e;
      }
    </style>
  </defs>
  <path class="cls-3" d="M47.15,43.23v64.34h157.16V43.23H47.15ZM125.73,102.93l-27.52-27.52,27.52-27.52,27.52,27.52-27.52,27.52Z"/>
  <rect class="cls-1" x="47.14" y="107.58" width="157.17" height="19.84"/>
  <rect class="cls-2" x="47.14" y="28.74" width="157.17" height="15.47"/>
  <g>
    <path class="cls-2" d="M80.73,143.79h0c-5.79-5.79-9.04-9.04-14.83-14.83v-15.22s29.66,0,29.66,0v15.22c-5.79,5.79-9.04,9.04-14.83,14.83Z"/>
    <path class="cls-2" d="M125.73,143.79h0c-5.79-5.79-9.04-9.04-14.83-14.83v-15.22s29.66,0,29.66,0v15.22c-5.79,5.79-9.04,9.04-14.83,14.83Z"/>
    <path class="cls-2" d="M170.72,143.79h0c-5.79-5.79-9.04-9.04-14.83-14.83v-15.22s29.66,0,29.66,0v15.22c-5.79,5.79-9.04,9.04-14.83,14.83Z"/>
  </g>
</svg>