<?xml version="1.0" encoding="UTF-8"?>
<svg id="Calque_1" data-name="Calque 1" xmlns="http://www.w3.org/2000/svg" viewBox="0 0 262.1 277.23">
  <defs>
    <style>
      .cls-1 {
        fill: #c6400a;
      }
    </style>
  </defs>
  <path class="cls-1" d="M131.05,61.26c-44.47,0-80.51,36.04-80.51,80.51s36.04,80.5,80.51,80.5,80.5-36.04,80.5-80.5-36.04-80.51-80.5-80.51ZM73.17,174.08l7.45-21.66h11.9l7.39-21.48h11.91l7.38-21.48h23.69l7.39,21.48h11.9l7.39,21.48h11.9l7.45,21.66h-115.75Z"/>
  <polygon class="cls-1" points="138.43 131.11 131.11 152.42 130.99 152.42 123.66 131.11 138.43 131.11"/>
  <polygon class="cls-1" points="157.72 152.59 150.34 174.08 142.95 152.59 157.72 152.59"/>
  <polygon class="cls-1" points="119.14 152.59 111.76 174.08 104.37 152.59 119.14 152.59"/>
</svg>