<?xml version="1.0" encoding="UTF-8"?>
<svg id="Calque_1" data-name="Calque 1" xmlns="http://www.w3.org/2000/svg" viewBox="0 0 262.1 277.23">
  <defs>
    <style>
      .cls-1 {
        fill: #373636;
      }
    </style>
  </defs>
  <path class="cls-1" d="M130.58,51.45c-44.46,0-80.5,36.04-80.5,80.5s36.04,80.51,80.5,80.51,80.5-36.05,80.5-80.51-36.04-80.5-80.5-80.5ZM186.65,155.47c-.5.92-1.16,1.82-2.13,2.23-.72.31-1.54.31-2.33.31-35.17-.2-70.35-.4-105.52-.6-.6,0-1.23-.01-1.75-.31-.66-.38-.99-1.13-1.28-1.83-1.58-3.8.93-1.66,1.17-5.77,3.57-1.88,7.15-3.75,10.73-5.63.62-.32,1.27-.66,1.97-.63.8.03,1.49.52,2.12,1.01,1.69,1.32,3.29,2.76,4.78,4.31.31.32.65.67,1.09.73.46.06,1.28-.43,1.28-.43,0,0,5.13-3.18,7.69-4.77.57-.36,1.45-1.36,1.45-1.36l-1.66-4.71,4.94-6.71,9.2-1.76,6.24-9.84s-.69-8.09-1.84-12c3-1.16,9.34-1.81,9.34-1.81l5.62,6.56s-.3,1.18-.02,1.68c.22.39,1.09.74,1.09.74,0,0,3.41,1.34,5.12,2,.5.2,1.04.42,1.32.88.3.47.25,1.07.18,1.63-.38,3.06-.98,6.1-1.8,9.07-.16.59-.33,1.25-.05,1.79.28.57.94.83,1.54,1.04,3.9,1.35,7.79,2.7,11.68,4.06,2.25.78,4.75,1.77,5.69,3.96.64,1.47.56,3.42,1.9,4.29.63.4,1.42.45,2.16.48,4.76.19,9.51.39,14.26.58,2.39.1,5.14.4,6.45,2.39.68,1.02.82,2.31.75,3.53-.1,1.7-.58,3.38-1.38,4.89Z"/>
</svg>