<?xml version="1.0" encoding="UTF-8"?>
<svg id="Calque_1" data-name="Calque 1" xmlns="http://www.w3.org/2000/svg" viewBox="0 0 262.1 277.23">
  <defs>
    <style>
      .cls-1 {
        fill: #294b9b;
      }
    </style>
  </defs>
  <path class="cls-1" d="M131.05,61.27c-44.46,0-80.51,36.04-80.51,80.5s36.05,80.5,80.51,80.5,80.5-36.04,80.5-80.5-36.04-80.5-80.5-80.5ZM154.24,183.08c-5.78,5.78-13.76,9.35-22.58,9.35h-1.23c-17.64,0-31.93-14.3-31.93-31.94,0-9.36,4.96-23.53,11.51-36.94,6.55-13.41,14.69-26.08,21.04-32.44,6.35,6.36,14.49,19.03,21.04,32.44,6.55,13.41,11.51,27.58,11.51,36.94,0,8.82-3.58,16.81-9.36,22.59Z"/>
</svg>