<?xml version="1.0" encoding="UTF-8"?>
<svg id="Calque_1" data-name="Calque 1" xmlns="http://www.w3.org/2000/svg" viewBox="0 0 251.46 176.59">
  <defs>
    <style>
      .cls-1 {
        fill: #909090;
      }

      .cls-2 {
        fill: #474746;
      }

      .cls-3 {
        fill: #b2b2b2;
      }

      .cls-4 {
        fill: #5f5e5e;
      }
    </style>
  </defs>
  <path class="cls-3" d="M199.16,40.47v111.5c0,11.27-9.14,20.41-20.41,20.41h-23.06c-11.27,0-20.41-9.14-20.41-20.41v-42.76h13.64l-9.02-15.63-4.62-8v-45.11c0-.88.06-1.74.17-2.59,1.27-10.05,9.85-17.82,20.24-17.82h23.06c11.27,0,20.41,9.14,20.41,20.41Z"/>
  <path class="cls-1" d="M167.75,93.81l-32.3-55.93-10.47-18.13-6.4-11.09-72.03,124.75h144.06l-22.86-39.6ZM88.24,109.21l30.34-52.54,4.3,7.45,12.4,21.46,4.62,8,9.02,15.63h-60.68Z"/>
  <g>
    <rect class="cls-4" x="76.91" y="129.39" width="83.34" height="14.69" transform="translate(237.16 273.47) rotate(180)"/>
    <rect class="cls-4" x="37.94" y="61.89" width="83.34" height="14.69" transform="translate(-20.15 103.56) rotate(-60)"/>
    <rect class="cls-4" x="115.88" y="61.89" width="83.34" height="14.69" transform="translate(138.74 -101.83) rotate(60)"/>
  </g>
  <g>
    <g id="_Répétition_radiale_" data-name="&amp;lt;Répétition radiale&amp;gt;">
      <rect class="cls-2" x="99.71" y="115.25" width="37.75" height="9.59" transform="translate(-1.46 238.63) rotate(-90)"/>
    </g>
    <g id="_Répétition_radiale_-2" data-name="&amp;lt;Répétition radiale&amp;gt;">
      <rect class="cls-2" x="72.78" y="95.69" width="37.75" height="9.59" transform="translate(-26.57 33.24) rotate(-18)"/>
    </g>
    <g id="_Répétition_radiale_-3" data-name="&amp;lt;Répétition radiale&amp;gt;">
      <rect class="cls-2" x="83.07" y="64.04" width="37.75" height="9.59" transform="translate(97.71 -54.1) rotate(54)"/>
    </g>
    <g id="_Répétition_radiale_-4" data-name="&amp;lt;Répétition radiale&amp;gt;">
      <rect class="cls-2" x="116.35" y="64.04" width="37.75" height="9.59" transform="translate(270.39 -.11) rotate(126)"/>
    </g>
    <g id="_Répétition_radiale_-5" data-name="&amp;lt;Répétition radiale&amp;gt;">
      <rect class="cls-2" x="126.63" y="95.69" width="37.75" height="9.59" transform="translate(252.84 241.02) rotate(-162)"/>
    </g>
  </g>
  <polygon class="cls-2" points="118.58 44.97 139.55 8.66 97.62 8.66 118.58 44.97"/>
  <polygon class="cls-2" points="118.58 120.76 97.62 157.08 139.55 157.08 118.58 120.76"/>
</svg>