<?xml version="1.0" encoding="UTF-8"?>
<svg id="Calque_1" data-name="Calque 1" xmlns="http://www.w3.org/2000/svg" viewBox="0 0 262.1 277.23">
  <defs>
    <style>
      .cls-1 {
        fill: #8a8989;
      }
    </style>
  </defs>
  <path class="cls-1" d="M131.05,58.11c-44.47,0-80.51,36.04-80.51,80.51s36.04,80.5,80.51,80.5,80.5-36.04,80.5-80.5-36.04-80.51-80.5-80.51ZM73.17,170.93l7.45-21.66h11.9l7.39-21.48h11.91l7.38-21.48h23.69l7.39,21.48h11.9l7.39,21.48h11.9l7.45,21.66h-115.75Z"/>
  <polygon class="cls-1" points="138.43 127.96 131.11 149.27 130.99 149.27 123.66 127.96 138.43 127.96"/>
  <polygon class="cls-1" points="157.72 149.44 150.34 170.93 142.95 149.44 157.72 149.44"/>
  <polygon class="cls-1" points="119.14 149.44 111.76 170.93 104.37 149.44 119.14 149.44"/>
</svg>