<?xml version="1.0" encoding="UTF-8"?>
<svg id="Calque_1" data-name="Calque 1" xmlns="http://www.w3.org/2000/svg" viewBox="0 0 262.1 277.23">
  <defs>
    <style>
      .cls-1 {
        fill: #fcec48;
      }
    </style>
  </defs>
  <path class="cls-1" d="M130.59,58.11c-44.47,0-80.51,36.04-80.51,80.51s36.04,80.5,80.51,80.5,80.5-36.04,80.5-80.5-36.04-80.51-80.5-80.51ZM72.71,170.93l7.45-21.66h11.9l7.39-21.48h11.91l7.38-21.48h23.69l7.39,21.48h11.9l7.39,21.48h11.9l7.45,21.66h-115.75Z"/>
  <polygon class="cls-1" points="137.97 127.96 130.65 149.27 130.53 149.27 123.2 127.96 137.97 127.96"/>
  <polygon class="cls-1" points="157.26 149.44 149.88 170.93 142.49 149.44 157.26 149.44"/>
  <polygon class="cls-1" points="118.68 149.44 111.3 170.93 103.91 149.44 118.68 149.44"/>
</svg>