<?xml version="1.0" encoding="UTF-8"?>
<svg id="Calque_1" data-name="Calque 1" xmlns="http://www.w3.org/2000/svg" viewBox="0 0 262.1 277.23">
  <defs>
    <style>
      .cls-1 {
        fill: #f49a6c;
      }
    </style>
  </defs>
  <path class="cls-1" d="M131.51,50.14c-44.46,0-80.5,36.04-80.5,80.5s36.04,80.5,80.5,80.5,80.5-36.04,80.5-80.5-36.04-80.5-80.5-80.5ZM169.52,104.14l-.11-.08c-.87-.56-1.49-1.76-2.25-2.29-.69.35-1.55,1.51-3.24,3.1-1.39,1.34-3.06,3.01-4.84,4.8,6.12,5.99,13.98,12.82,14.33,20.37.27,5.98-3.02,11.95-8,15.24-3.28,2.26-7.36,3-10.91,4.21-2.99.82-4.18,3.55-4.85,6.32-.84,3.42-2.58,8.59-5.73,11.49l-.1.1c-2.91,2.91-6.86,4.78-10.95,5.14-8.89.72-15.15-7.19-21.35-13.28-3.1,3.1-5.95,5.96-7.64,7.68-.07.12-.04.22.04.36,7.13,7.18-1.96,18.04-10.11,11.95-1.62-1.34-2.63-3.35-2.74-5.43-.11-1.58.61-3.01-1.14-2.81-2.25.29-4.69-.37-6.36-1.97-6.96-6.86,2.11-17.39,9.92-11.9l.11.08c.88.56,1.5,1.76,2.26,2.29.69-.35,1.55-1.51,3.24-3.1,1.37-1.32,3.02-2.96,4.77-4.73-1.62-1.62-3.22-3.24-4.79-4.85-5.05-5.23-8.26-9.4-8.5-14.57-.27-5.89,2.92-11.77,7.77-15.09,2.1-1.46,4.52-2.36,6.61-2.98,3.69-1.26,6.33-1.01,7.72-4.17,1.31-4.14,1.02-8.08,3.66-12.5,3.33-5.75,10.28-9.51,16.87-8.61,6.67.89,12.64,7.29,18.28,13.12,3.1-3.11,5.95-5.96,7.64-7.69.08-.12.05-.22-.03-.36-7.13-7.18,1.96-18.04,10.1-11.95,1.63,1.34,2.64,3.35,2.75,5.43.11,1.58-.61,3.01,1.14,2.81,2.25-.29,4.69.37,6.36,1.97,6.96,6.86-2.11,17.39-9.93,11.9Z"/>
</svg>