<?xml version="1.0" encoding="UTF-8"?>
<svg id="Calque_1" data-name="Calque 1" xmlns="http://www.w3.org/2000/svg" viewBox="0 0 262.1 277.23">
  <defs>
    <style>
      .cls-1 {
        fill: #ffedaa;
      }
    </style>
  </defs>
  <path class="cls-1" d="M131.05,58.11c-44.46,0-80.51,36.04-80.51,80.5s36.05,80.51,80.51,80.51,80.5-36.05,80.5-80.51-36.04-80.5-80.5-80.5ZM187.47,159.34c-5.97,3.4-13.35,2.47-20.18,1.76-22.72-2.37-45.64-1.24-68.47-.94-8.6.11-17.26.1-25.71-1.47.58-1.35.32-.72.56-2.23.87-2.33,3.47-3.51,5.89-4.11,2.42-.59,5.04-.9,7-2.44,2.38-1.86,3.39-5.22,6.05-6.65,1.3-.7,2.81-.82,4.26-1.11,3.01-.59,5.84-1.9,8.62-3.2,3.97-1.85,8.24-3.99,10.1-7.96.7-1.5,1.11-3.32,2.51-4.2.87-.55,1.95-.61,2.97-.72,4.36-.47,8.74-2.19,11.59-5.52,1.51-1.78,2.71-4.08,4.92-4.85,2.29-.8,4.83.42,6.63,2.06,2.73,2.5,4.4,5.91,6.37,9.04,1.97,3.14,4.5,6.21,8.04,7.31,1.19.37,2.45.5,3.62.93,2.26.84,3.95,2.7,5.88,4.14,3.36,2.49,7.62,3.8,10.41,6.92,3,3.36,4.35,8.78,8.7,9.94.57.15,1.22.25,1.56.72.64.89-.37,2.04-1.32,2.58Z"/>
</svg>